Coordinates
version=1
nRows=8
nColumns=46
inDegrees=yes

Units are S.I. units (second, meters, Newtons, ...)
Angles are in degrees.

endheader
time	pelvis_tilt	pelvis_list	pelvis_rotation	pelvis_tx	pelvis_ty	pelvis_tz	bb_angle	bb_tx	bb_ty	bb_tz	hip_flexion_r	hip_adduction_r	hip_rotation_r	knee_angle_r	knee_angle_r_beta	ankle_angle_r	subtalar_angle_r	mtp_angle_r	crank_angle_r	hip_flexion_l	hip_adduction_l	hip_rotation_l	knee_angle_l	knee_angle_l_beta	ankle_angle_l	subtalar_angle_l	mtp_angle_l	crank_angle_l	lumbar_extension	lumbar_bending	lumbar_rotation	arm_flex_r	arm_add_r	arm_rot_r	elbow_flex_r	pro_sup_r	wrist_flex_r	wrist_dev_r	arm_flex_l	arm_add_l	arm_rot_l	elbow_flex_l	pro_sup_l	wrist_flex_l	wrist_dev_l
      7.50500000	    -29.12507659	     -8.04791386	     -4.34423599	      0.41723236	      1.21943062	     -0.23739002	      0.00000000	      0.50000000	      0.00000000	      0.25000000	     77.67973194	      2.64580581	     -6.18337895	     84.36510262	      1.47244881	     -0.19890977	     -5.89894502	      0.00000000	      0.00000000	     38.98608984	    -15.83065441	     -2.08541662	     48.11526899	      0.83976986	    -15.99986728	     -6.27805613	      0.00000000	      0.00000000	    -67.12314060	     12.41010041	      8.32606835	     73.02466841	    -17.48114316	     40.46444957	     83.32899724	     59.18614558	      0.00000000	      0.00000000	     38.09357631	    -24.30540712	      1.10997787	    100.89047708	     54.21415882	      0.00000000	      0.00000000
      7.51000000	    -29.44815371	     -7.53460893	     -4.28851088	      0.41713130	      1.22035911	     -0.23670780	      0.00000000	      0.50000000	      0.00000000	      0.25000000	     76.74025799	      2.46204277	     -5.96325909	     82.09178971	      1.43277202	      0.75022968	     -5.69300187	      0.00000000	      0.00000000	     40.44593451	    -15.48887824	     -1.72477389	     50.55850909	      0.88241245	    -16.45909082	     -6.24965268	      0.00000000	      0.00000000	    -66.81493379	     12.12426502	      8.05117840	     72.42607156	    -17.43099101	     39.69990711	     83.63620271	     59.07185609	      0.00000000	      0.00000000	     38.48342287	    -24.29300793	      1.22468477	    100.45123835	     54.12948051	      0.00000000	      0.00000000
      7.51500000	    -29.71324198	     -6.97265827	     -4.31209831	      0.41719103	      1.22135056	     -0.23584545	      0.00000000	      0.50000000	      0.00000000	      0.25000000	     75.63151264	      2.40348221	     -5.60615759	     79.65220413	      1.39019322	      1.53540558	     -5.65947683	      0.00000000	      0.00000000	     41.76715655	    -15.13257262	     -1.44340715	     52.88941995	      0.92309452	    -16.88587745	     -6.21008092	      0.00000000	      0.00000000	    -66.56877402	     11.65991020	      7.64092397	     72.01878542	    -17.43202432	     39.31103362	     83.79319963	     59.00275599	      0.00000000	      0.00000000	     38.97776116	    -24.34271645	      1.21113572	    100.18897780	     54.05767190	      0.00000000	      0.00000000
      7.52000000	    -30.10131895	     -6.51373768	     -4.26690228	      0.41716434	      1.22167312	     -0.23515309	      0.00000000	      0.50000000	      0.00000000	      0.25000000	     74.60841893	      2.24997910	     -5.44232263	     77.13107326	      1.34619118	      2.01937016	     -5.53580941	      0.00000000	      0.00000000	     43.34777068	    -14.82483681	     -1.00831400	     55.35488460	      0.96612499	    -17.15446701	     -5.71816377	      0.00000000	      0.00000000	    -66.06796539	     11.38658029	      7.48241750	     71.18116226	    -17.44491863	     38.34443418	     84.15672864	     58.91020377	      0.00000000	      0.00000000	     39.36648458	    -24.14696018	      1.64078966	     99.46569877	     53.98063518	      0.00000000	      0.00000000
      7.52500000	    -30.30157145	     -5.89862808	     -4.22994855	      0.41732962	      1.22222456	     -0.23420829	      0.00000000	      0.50000000	      0.00000000	      0.25000000	     73.32784252	      2.04105384	     -5.19943245	     74.52801697	      1.30075928	      2.38801497	     -5.52626184	      0.00000000	      0.00000000	     44.65546253	    -14.41516465	     -0.80867750	     57.69104693	      1.00689872	    -17.52523238	     -5.58758683	      0.00000000	      0.00000000	    -65.72288501	     10.88390331	      7.02144732	     70.52222525	    -17.46339290	     37.76811088	     84.37922572	     58.85227429	      0.00000000	      0.00000000	     39.89026291	    -24.11552955	      1.87506804	     99.10255643	     53.93433459	      0.00000000	      0.00000000
      7.53000000	    -30.52769336	     -5.35063903	     -4.03758976	      0.41752504	      1.22235676	     -0.23329865	      0.00000000	      0.50000000	      0.00000000	      0.25000000	     72.04014545	      1.74913351	     -5.07095268	     71.89498102	      1.25480413	      2.50274928	     -5.81622121	      0.00000000	      0.00000000	     46.10920594	    -13.99999970	     -0.50308254	     60.10463368	      1.04902375	    -17.75641548	     -5.26798758	      0.00000000	      0.00000000	    -65.27635713	     10.51278384	      6.73555890	     69.40736369	    -17.39753518	     36.42948165	     84.85686984	     58.74733454	      0.00000000	      0.00000000	     40.38266506	    -23.98711222	      2.73535511	     98.40585148	     53.91712295	      0.00000000	      0.00000000
      7.53500000	    -30.47213945	     -4.36833258	     -3.90271903	      0.41823141	      1.22290062	     -0.23273326	      0.00000000	      0.50000000	      0.00000000	      0.25000000	     70.48021471	      1.20581887	     -4.56061683	     69.31608238	      1.20979386	      2.65183487	     -5.83009892	      0.00000000	      0.00000000	     47.01720377	    -13.19244208	     -0.64393000	     62.25570553	      1.08656704	    -18.00868144	     -5.16610347	      0.00000000	      0.00000000	    -65.03958906	      9.96473442	      5.85834178	     69.09689115	    -17.51423125	     36.26878962	     84.92107092	     58.71215694	      0.00000000	      0.00000000	     40.44546048	    -23.82898809	      2.90716664	     98.29997683	     53.90361032	      0.00000000	      0.00000000
      7.54000000	    -30.76126053	     -3.92592900	     -3.79364506	      0.41846998	      1.22220915	     -0.23151735	      0.00000000	      0.50000000	      0.00000000	      0.25000000	     69.19509898	      1.01126571	     -4.65347441	     66.56779819	      1.16182725	      2.16338585	     -6.58863630	      0.00000000	      0.00000000	     48.62556705	    -12.98204169	     -0.41601020	     64.79332384	      1.13085683	    -18.13399049	     -4.97931089	      0.00000000	      0.00000000	    -64.33764179	      9.32737632	      6.07093651	     66.34496141	    -17.34662111	     32.92777039	     86.16836704	     58.49363210	      0.00000000	      0.00000000	     41.80738088	    -23.43482984	      4.72578253	     97.12528263	     53.92279021	      0.00000000	      0.00000000
